<svg width="22" height="22" viewBox="0 0 22 22" fill="none" xmlns="http://www.w3.org/2000/svg">
<path d="M9.18542 2.67675C9.64692 0.774417 12.3531 0.774417 12.8146 2.67675C12.8838 2.96253 13.0196 3.22793 13.2108 3.45133C13.402 3.67474 13.6432 3.84984 13.9149 3.96239C14.1865 4.07494 14.4809 4.12176 14.7741 4.09902C15.0673 4.07629 15.3509 3.98466 15.602 3.83158C17.2736 2.81325 19.1878 4.72642 18.1695 6.39908C18.0166 6.65004 17.9252 6.93353 17.9025 7.2265C17.8798 7.51948 17.9266 7.81367 18.039 8.08516C18.1514 8.35666 18.3263 8.59779 18.5495 8.78897C18.7726 8.98015 19.0377 9.11598 19.3233 9.18542C21.2256 9.64692 21.2256 12.3531 19.3233 12.8146C19.0375 12.8838 18.7721 13.0196 18.5487 13.2108C18.3253 13.402 18.1502 13.6432 18.0376 13.9149C17.9251 14.1865 17.8782 14.4809 17.901 14.7741C17.9237 15.0673 18.0153 15.3509 18.1684 15.602C19.1868 17.2736 17.2736 19.1878 15.6009 18.1695C15.35 18.0166 15.0665 17.9252 14.7735 17.9025C14.4805 17.8798 14.1863 17.9266 13.9148 18.039C13.6433 18.1514 13.4022 18.3263 13.211 18.5495C13.0198 18.7726 12.884 19.0377 12.8146 19.3233C12.3531 21.2256 9.64692 21.2256 9.18542 19.3233C9.11617 19.0375 8.98043 18.7721 8.78923 18.5487C8.59803 18.3253 8.35679 18.1502 8.08513 18.0376C7.81347 17.9251 7.51907 17.8782 7.2259 17.901C6.93273 17.9237 6.64907 18.0153 6.398 18.1684C4.72642 19.1868 2.81217 17.2736 3.8305 15.6009C3.98336 15.35 4.07485 15.0665 4.09752 14.7735C4.1202 14.4805 4.07343 14.1863 3.96101 13.9148C3.84859 13.6433 3.6737 13.4022 3.45055 13.211C3.22739 13.0198 2.96228 12.884 2.67675 12.8146C0.774417 12.3531 0.774417 9.64692 2.67675 9.18542C2.96253 9.11617 3.22793 8.98043 3.45133 8.78923C3.67474 8.59803 3.84984 8.35679 3.96239 8.08513C4.07494 7.81347 4.12176 7.51907 4.09902 7.2259C4.07629 6.93273 3.98466 6.64907 3.83158 6.398C2.81325 4.72642 4.72642 2.81217 6.39908 3.8305C7.48242 4.48917 8.88642 3.90633 9.18542 2.67675Z" stroke="#BABABA" stroke-width="1.8" stroke-linecap="round" stroke-linejoin="round"/>
<path d="M7.75 11C7.75 11.862 8.09241 12.6886 8.7019 13.2981C9.3114 13.9076 10.138 14.25 11 14.25C11.862 14.25 12.6886 13.9076 13.2981 13.2981C13.9076 12.6886 14.25 11.862 14.25 11C14.25 10.138 13.9076 9.3114 13.2981 8.7019C12.6886 8.09241 11.862 7.75 11 7.75C10.138 7.75 9.3114 8.09241 8.7019 8.7019C8.09241 9.3114 7.75 10.138 7.75 11Z" stroke="#BABABA" stroke-width="1.8" stroke-linecap="round" stroke-linejoin="round"/>
</svg>
