<svg width="20" height="20" viewBox="0 0 20 20" fill="none" xmlns="http://www.w3.org/2000/svg">
<g clip-path="url(#clip0_178_33)">
<path fill-rule="evenodd" clip-rule="evenodd" d="M12.8118 6.19548C13.1935 6.59106 13.3328 7.14682 13.2672 7.68412C13.1721 8.46409 12.947 9.19436 12.6829 9.93054C12.4003 10.7183 12.1135 11.5044 11.8253 12.29C11.3642 13.5472 10.8995 14.8029 10.4435 16.0619C10.3302 16.3746 10.2494 16.7085 10.2171 17.0388C10.182 17.3985 10.4407 17.5756 10.7655 17.416C11.0257 17.2881 11.279 17.114 11.4827 16.9079C11.8155 16.5714 12.1469 16.2332 12.4702 15.8873C12.6318 15.7144 12.7917 15.5394 12.9485 15.3619C13.0734 15.2204 13.2018 15.0076 13.3733 14.9215C13.6979 14.7586 13.9485 15.1595 13.8897 15.4402C13.8336 15.7087 13.6487 15.9442 13.4787 16.1585L13.467 16.1733C13.4515 16.1927 13.4362 16.2121 13.4208 16.2316C12.8493 16.9586 12.2225 17.6596 11.5114 18.2522C10.8124 18.8331 10.0363 19.3273 9.184 19.6478C8.9064 19.7521 8.62195 19.8379 8.33282 19.9037C7.77465 20.0307 7.15785 20.0212 6.58741 19.9384C6.16917 19.8777 5.79318 19.6109 5.61591 19.2227C5.30816 18.5488 5.52237 17.7165 5.68148 17.0305C5.8764 16.1907 6.16898 15.391 6.46787 14.5866L6.49057 14.5254L6.50195 14.4949L6.52468 14.4337L6.54741 14.3726C6.8938 13.4401 7.24987 12.5113 7.60706 11.583C7.93304 10.7362 8.2604 9.88991 8.583 9.04186C8.60763 8.97711 8.63513 8.91281 8.66289 8.84855L8.6733 8.82445C8.7445 8.65981 8.81529 8.49511 8.8418 8.32349C8.90544 7.91165 8.60841 7.54497 8.19613 7.78238C7.48342 8.1928 6.94971 8.80313 6.42074 9.41721L6.35642 9.4919C6.19204 9.68276 6.02744 9.87322 5.85738 10.0574C5.68978 10.2389 5.49026 10.464 5.2021 10.256C4.89459 10.0341 4.98579 9.74939 5.16056 9.50826C6.13119 8.16889 7.29656 6.91597 8.81536 6.20844C9.45006 5.91275 10.3374 5.61172 11.1683 5.60185C11.7912 5.59448 12.3825 5.75069 12.8118 6.19548ZM13.7705 0.154442C14.5695 0.465338 15.0001 1.15999 15 2.13795C14.9999 3.90034 13.0963 5.10574 11.5049 4.35102C10.6824 3.96096 10.2824 3.03642 10.4818 1.98642C10.7578 0.532275 12.3962 -0.380277 13.7705 0.154442Z" fill="#BABABA"/>
</g>
<defs>
<clipPath id="clip0_178_33">
<rect width="20" height="20" fill="white"/>
</clipPath>
</defs>
</svg>
