<svg width="48" height="48" viewBox="0 0 48 48" fill="none" xmlns="http://www.w3.org/2000/svg">
<path d="M16.4082 41.9855L16.408 41.9855C14.0839 41.0054 11.9949 39.5952 10.2025 37.8029C8.41021 36.0108 7.00417 33.9219 6.01934 31.5976C4.99926 29.1896 4.48469 26.6353 4.48469 24C4.48469 22.968 3.64943 22.1328 2.61735 22.1328C1.58526 22.1328 0.75 22.968 0.75 24C0.75 27.1371 1.36306 30.1846 2.57579 33.0503C3.74758 35.8206 5.42814 38.3047 7.56217 40.4385C9.69619 42.5723 12.1805 44.2527 14.951 45.4244C17.8171 46.637 20.8648 47.25 24.0022 47.25C27.1397 47.25 30.1875 46.637 33.0538 45.4198C35.8193 44.2482 38.3081 42.5725 40.4423 40.4385C42.5763 38.3047 44.257 35.8205 45.4243 33.05C46.637 30.1843 47.25 27.137 47.25 24C47.25 20.8628 46.6369 17.8154 45.4242 14.9496L45.4242 14.9495C44.2525 12.1842 42.5766 9.69556 40.4423 7.5615C38.3083 5.42768 35.824 3.7473 33.0535 2.57562C30.1874 1.363 27.1397 0.75 24.0022 0.75C22.9702 0.75 22.1349 1.58515 22.1349 2.61719C22.1349 3.64923 22.9702 4.48438 24.0022 4.48438C26.6378 4.48438 29.1924 4.99891 31.5963 6.01447L31.5965 6.01453C33.9166 6.99306 36.0241 8.41354 37.8017 10.1968L37.8021 10.1972C39.5833 11.9767 41.0037 14.0838 41.9851 16.4023L41.9852 16.4024C43.0052 18.8104 43.5198 21.3647 43.5198 24C43.5198 26.6353 43.0052 29.1897 41.9896 31.5933L41.9895 31.5935C41.0093 33.9173 39.599 36.0061 37.8065 37.7984C36.0143 39.5905 33.9252 40.9964 31.6006 41.9811C29.1923 43.0011 26.6378 43.5156 24.0022 43.5156C21.3667 43.5156 18.812 43.0011 16.4082 41.9855Z" fill="#BABABA" stroke="#BABABA" stroke-width="0.5"/>
</svg>
